<?xml version="1.0" encoding="UTF-8"?>
<svg id="Layer_2" xmlns="http://www.w3.org/2000/svg" version="1.1" viewBox="0 0 959.6 58.2">
  <!-- Generator: Adobe Illustrator 29.3.1, SVG Export Plug-In . SVG Version: 2.1.0 Build 151)  -->
  <defs>
    <style>
      .st0 {
        fill: #000;
      }
    </style>
  </defs>
  <path class="st0" d="M107.1,37.2V1.4h10.3v35.9c0,12.4-9.7,20.4-21,20.4s-21.1-8-21.1-20.4V1.4h10.5v35.9c0,6.4,5.1,10.6,10.6,10.6s10.7-4.2,10.7-10.6h0Z"/>
  <path class="st0" d="M140.5,1.4h41.6v9.4h-15.6v46h-10.4V10.8h-15.6V1.4h0Z"/>
  <path class="st0" d="M208,40.6c.2,4.1,3.6,7.8,9.6,7.8s8.9-2.9,9.2-6.7c.2-3.6-2.3-6.1-7.6-7.6l-6.8-1.8c-12.1-3.5-14-10.6-14-15.5,0-9.7,8.4-16.2,18.7-16.2s18.4,6.4,18.4,16.7h-10.3c0-4.4-3.1-7.2-8.3-7.2s-8.3,2.6-8.3,6.5.6,4.9,6.6,6.4l6.8,2c12.5,3.5,15.5,10.4,15.1,16.9-.4,10-9.4,15.7-19.5,15.7s-19.9-7.6-19.9-17.1h10.3,0Z"/>
  <path class="st0" d="M261.8,1.4h10.2v55.4h-10.2V1.4Z"/>
  <path class="st0" d="M305.2,56.8V1.4h21.6c15.9,0,25,12.1,25,27.8s-9.2,27.6-25,27.6h-21.6ZM315.5,47.4h11.3c9.8,0,14.7-8.2,14.7-18.2s-4.9-18.4-14.7-18.4h-11.3v36.6h0Z"/>
  <path class="st0" d="M373.9,1.4h34.3v9.2h-24.1v14.4h21.1v9.1h-21.1v13.6h24.9v9.2h-35.1V1.4h0Z"/>
  <path class="st0" d="M469.6,56.8h-12.4l-13-19.7h-4.3v19.7h-10.3V1.4h22.2c12.2,0,17.7,8.9,17.7,17.9s-4.2,15.8-14.1,17.4l14.2,20.1h0ZM439.9,10.5v17.4h11.1c5.5,0,7.8-4.5,7.8-8.6s-2.3-8.8-7.5-8.8h-11.4,0Z"/>
  <path class="st0" d="M46,24h-4.5v-8.2h11.8c.4,1,.9,2,1.2,3,4.8,14-2,29.2-15.5,35C22.8,60.8,4.4,51.1.7,34-3.5,14.6,13.1-2.8,32.7.4c5.1.8,10,3.2,13.8,6.5v.2l-4.9,8.5c0,0-1.1-1.1-1.3-1.2-5.2-4.7-13-6-19.4-3.2-11.7,5-15,20-6.3,29.5,8.5,9.2,23.8,7.2,29.7-3.8,2.1-3.9,2.6-8.3,1.8-12.7h0Z"/>
  <path class="st0" d="M556.1,31c0,18.3-9.7,27.2-25,27.2s-27.1-12.3-27.1-27.6,11.7-27.7,27.1-27.7,12.5,2.3,17.2,6.3l-3.7,3.7c-3.7-3.1-8.3-4.8-13.5-4.8-12.5,0-21.9,10-21.9,22.5s9.5,22.5,21.9,22.5,18.6-6.5,19.3-17.2h-15.7v-4.9h21.5,0Z"/>
  <path class="st0" d="M577.9,57.5l20.7-53.9h5.5l20.7,53.9h-5.6l-5.5-14.2h-25l-5.4,14.2h-5.6,0ZM601.4,10.7l-10.7,27.7h21.3l-10.7-27.7h0Z"/>
  <path class="st0" d="M658.9,3.5v48.8h22.9v5.2h-28V3.5h5.2,0Z"/>
  <path class="st0" d="M721.3,3.5v48.8h22.9v5.2h-28V3.5h5.2,0Z"/>
  <path class="st0" d="M810.8,3.5v5.2h-25.6v19.7h22.4v5.2h-22.4v18.7h26.5v5.2h-31.6V3.5h30.8,0Z"/>
  <path class="st0" d="M886.8,57.5h-6.3l-14.9-21.1h-9.1v21.1h-5.2V3.5h20c11,0,15,8.1,15,16.5s-3.9,16.1-14.3,16.4l14.9,21.1h0ZM856.5,8.7v22.5h14.4c7.6,0,10.2-5.5,10.2-11.2s-2.6-11.4-9.8-11.4c0,0-14.8,0-14.8,0Z"/>
  <path class="st0" d="M939.1,57.5h-5.3v-25l-20.3-28.9h6.2l16.8,23.2,16.9-23.2h6.3l-20.5,28.9v25h0Z"/>
</svg>