<?xml version="1.0" encoding="UTF-8"?>
<svg id="Layer_2" xmlns="http://www.w3.org/2000/svg" version="1.1" viewBox="0 0 966.8 90">
  <!-- Generator: Adobe Illustrator 29.6.1, SVG Export Plug-In . SVG Version: 2.1.1 Build 9)  -->
  <defs>
    <style>
      .st0 {
        letter-spacing: .3em;
      }

      .st0, .st1, .st2, .st3, .st4, .st5, .st6 {
        font-family: SofiaPro-Light, 'Sofia Pro';
        font-size: 78.3px;
        font-weight: 300;
      }

      .st0, .st1, .st2, .st3, .st4, .st5, .st6, .st7, .st8, .st9, .st10, .st11, .st12 {
        isolation: isolate;
      }

      .st0, .st1, .st2, .st3, .st4, .st5, .st6, .st8, .st9, .st13, .st10, .st11, .st12 {
        fill: #fff;
      }

      .st1 {
        letter-spacing: .3em;
      }

      .st2 {
        letter-spacing: .3em;
      }

      .st3 {
        letter-spacing: .3em;
      }

      .st4 {
        letter-spacing: .3em;
      }

      .st5 {
        letter-spacing: .3em;
      }

      .st6 {
        letter-spacing: .2em;
      }

      .st8 {
        letter-spacing: .1em;
      }

      .st8, .st9, .st10, .st11, .st12 {
        font-family: SofiaPro-SemiBold, 'Sofia Pro';
        font-size: 80.5px;
        font-weight: 600;
      }

      .st9 {
        letter-spacing: 0em;
      }

      .st10 {
        letter-spacing: .2em;
      }

      .st11 {
        letter-spacing: .1em;
      }

      .st12 {
        letter-spacing: .2em;
      }
    </style>
  </defs>
  <g id="Layer_1-2">
    <g class="st7">
      <text class="st12" transform="translate(76.2 68)"><tspan x="0" y="0">U</tspan></text>
      <text class="st8" transform="translate(145.5 68)"><tspan x="0" y="0">T</tspan></text>
      <text class="st12" transform="translate(201.2 68)"><tspan x="0" y="0">S</tspan></text>
      <text class="st10" transform="translate(262.2 68)"><tspan x="0" y="0">I</tspan></text>
      <text class="st11" transform="translate(305.5 68)"><tspan x="0" y="0">D</tspan></text>
      <text class="st8" transform="translate(374.2 68)"><tspan x="0" y="0">E</tspan></text>
      <text class="st9" transform="translate(429.9 68)"><tspan x="0" y="0">R</tspan></text>
    </g>
    <path class="st13" d="M53.3,36.2h-4.5v-8.2h11.8c.4,1,.9,2,1.2,3,4.8,14-2,29.2-15.5,35-16.2,6.9-34.7-2.7-38.4-19.8C3.7,26.8,20.4,9.4,39.9,12.5c5.1.8,10,3.2,13.8,6.5h0c0,.1-4.9,8.7-4.9,8.7,0,0-1.1-1.1-1.3-1.2-5.2-4.7-13-6-19.4-3.2-11.7,5-15,20-6.3,29.5,8.5,9.2,23.8,7.2,29.7-3.8,2.1-3.9,2.6-8.3,1.8-12.7Z"/>
    <g class="st7">
      <text class="st6" transform="translate(507 68.6)"><tspan x="0" y="0">G</tspan></text>
      <text class="st0" transform="translate(583.7 68.6)"><tspan x="0" y="0">A</tspan></text>
      <text class="st1" transform="translate(653.2 68.6)"><tspan x="0" y="0">L</tspan></text>
      <text class="st4" transform="translate(715.6 68.6)"><tspan x="0" y="0">L</tspan></text>
      <text class="st5" transform="translate(779.5 68.6)"><tspan x="0" y="0">E</tspan></text>
      <text class="st3" transform="translate(850.7 68.6)"><tspan x="0" y="0">R</tspan></text>
      <text class="st2" transform="translate(919.6 68.6)"><tspan x="0" y="0">Y</tspan></text>
    </g>
  </g>
</svg>