<?xml version="1.0" encoding="UTF-8"?>
<svg id="Layer_2" data-name="Layer 2" xmlns="http://www.w3.org/2000/svg" viewBox="0 0 966.83 90">
  <defs>
    <style>
      .cls-1 {
        font-family: SofiaPro-Light, 'Sofia Pro';
        font-size: 78.28px;
        font-weight: 300;
      }

      .cls-2 {
        letter-spacing: .33em;
      }

      .cls-3 {
        letter-spacing: .35em;
      }

      .cls-4 {
        letter-spacing: .27em;
      }

      .cls-5 {
        letter-spacing: .27em;
      }

      .cls-6 {
        letter-spacing: .31em;
      }

      .cls-7 {
        letter-spacing: .22em;
      }

      .cls-8 {
        letter-spacing: .24em;
      }

      .cls-9 {
        letter-spacing: .25em;
      }

      .cls-10 {
        letter-spacing: .5em;
      }

      .cls-11 {
        letter-spacing: .18em;
      }

      .cls-12 {
        letter-spacing: .18em;
      }

      .cls-13 {
        letter-spacing: .14em;
      }

      .cls-14 {
        fill: none;
        letter-spacing: .16em;
      }

      .cls-15 {
        font-family: SofiaPro-SemiBold, 'Sofia Pro';
        font-size: 80.47px;
        font-weight: 600;
      }

      .cls-16 {
        letter-spacing: .06em;
      }

      .cls-17 {
        letter-spacing: .12em;
      }

      .cls-18 {
        letter-spacing: .12em;
      }
    </style>
  </defs>
  <g id="Layer_1-2" data-name="Layer 1">
    <text class="cls-15" transform="translate(0 67.95)"><tspan class="cls-14" x="0" y="0">O</tspan><tspan class="cls-12" x="76.2" y="0">U</tspan><tspan class="cls-17" x="145.48" y="0">T</tspan><tspan class="cls-11" x="201.24" y="0">S</tspan><tspan class="cls-8" x="262.16" y="0">I</tspan><tspan class="cls-13" x="305.53" y="0">D</tspan><tspan class="cls-18" x="374.24" y="0">E</tspan><tspan class="cls-16" x="429.92" y="0">R</tspan><tspan class="cls-10" x="485.53" y="0"> </tspan></text>
    <path d="M53.3,36.19h-4.47v-8.19h11.75c.41,1,.87,1.98,1.22,3,4.81,13.97-2,29.24-15.47,34.99-16.25,6.93-34.71-2.73-38.42-19.85C3.7,26.76,20.39,9.37,39.91,12.54c5.06.82,9.96,3.16,13.81,6.51v.15s-4.86,8.54-4.86,8.54c-.09.02-1.13-1.09-1.3-1.25-5.18-4.69-12.95-5.97-19.39-3.23-11.73,4.99-15.02,20.05-6.32,29.47,8.52,9.23,23.79,7.21,29.67-3.83,2.1-3.93,2.63-8.34,1.78-12.71Z"/>
    <text class="cls-1" transform="translate(507.03 68.62)"><tspan class="cls-7" x="0" y="0">G</tspan><tspan class="cls-9" x="76.63" y="0">A</tspan><tspan class="cls-6" x="146.14" y="0">L</tspan><tspan class="cls-2" x="208.53" y="0">L</tspan><tspan class="cls-3" x="272.48" y="0">E</tspan><tspan class="cls-5" x="343.64" y="0">R</tspan><tspan class="cls-4" x="412.6" y="0">Y</tspan></text>
  </g>
</svg>